<svg width="33" height="30" viewBox="0 0 33 30" fill="none" xmlns="http://www.w3.org/2000/svg">
  <path d="M9.50709 16.3734L11.6632 16.4864V20.6506L14.9409 21.2519V28.737L9.78935 26.6949V22.5138L7.78443 21.9985V19.94L6.69977 19.7416V17.4899L3.82691 17.2044V24.3547L0.5 23.0333V6.60219L3.82691 5.28082V12.6693L5.4465 12.5701V11.1001L7.71148 10.6894V8.02969L8.52022 7.83281V5.48035L9.64822 5.1126V3.02229L14.9409 0.927734V8.12786L14.4536 8.2202V8.26955L13.7744 8.39797V9.76179L11.4311 10.1104V11.6311V13.1517L9.50709 13.2536V16.3734Z" fill="#FF4500" stroke="#FF4500" stroke-miterlimit="10"/>
  <path d="M30.002 13.4687C30.002 13.7181 30.002 13.967 30.002 14.2164V15.9055L31.1654 15.8445V18.7229L32.5001 18.4782V22.886L30.1711 23.8093V20.5988L28.8301 20.9432V19.1511L27.9447 19.3135V17.1993L24.7499 17.5166V25.9856L18.0586 28.6443V0.736328L24.7499 3.39498V12.1457L26.1586 12.272V10.6896L28.7751 11.077V8.75051L29.3629 8.89326V6.94039L30.0871 7.17601V5.55693L32.5006 6.51161V10.7506L32.3277 10.7177V10.7474L32.0735 10.6991V11.5471L31.0544 11.3954V13.5239C30.7029 13.5053 30.3524 13.4867 30.002 13.4687Z" fill="white" stroke="#FF4500" stroke-miterlimit="10"/>
</svg>
