<svg xmlns="http://www.w3.org/2000/svg" viewBox="0 0 152 32" fill="#ff4500">
  <path d="m10.3 5-1.2.4V8l-1 .2V11l-2.5.5V13l-1 .1V4.9L0 6.7v18.6l4.6 1.8v-8l2.4.2v2.5l1.2.2v2.2l2.3.6v4.6l6.7 2.6v-9.2l-3.8-.7v-4.6l-2.4-.2v-2.6l2.2-.2v-3.3l2.6-.4V9.2h.8V9l.6-.1V0l-6.9 2.7zm25 10.1v-2.3l1.2.2v-1l.3.1h.2V6.7l-3.6-1.4v1.9l-.8-.3V9l-.6-.2v2.6l-3-.4v2h-.8V3.2L19.8 0v32l8.4-3.3v-9.2l2.8-.3v2.4l1-.2v2l1.5-.4v3.7l3.5-1.4v-5.6l-1.5.3v-3.2l-1.3.1v-1.8h1.2zm-4 3.2-3.5.3h-.5v9.5l-6.5 2.6V1.3L27.3 4v9.7l2.6.3v-2l3 .5V10l.6.1v-2h.2l.7.2V6.6l1.7.7v3.8h-.5v.9l-1.1-.2v2.4h-1.2v3.7l1.3-.1V21l1.5-.2v4l-1.7.5V22l-1.5.4v-2l-1 .2v-2.3h-.5zm28.1-1.4c0-3.4 2.6-5.5 6-5.5s5.8 2.1 5.8 5.5-2.4 5.5-5.8 5.5-6-2.2-6-5.5m9 0c0-1.9-1.2-3.2-3-3.2s-3 1.3-3 3.2 1 3.1 3 3.1c1.9 0 3-1.3 3-3.1m3.4 3.1h1.4c.9-2.3 1.2-6 1.3-8.5h8.7v8.4l1.5.1v5H82l-.2-2.6h-7.1l-.3 2.6h-2.6zm8.5 0v-6.2h-3c-.1 2-.5 4.2-1.1 6.1h4.1zm21-8.5h2.1l.4.7c.8-.4 2.1-.8 3-.8 3.3 0 5.6 2.2 5.6 5.5s-2.3 5.5-5.7 5.5a6 6 0 0 1-2.5-.6v4h-2.9zm8.2 5.5c0-1.8-.7-3-2.6-3.1-.9 0-2.1.2-2.7.9v4.6c.7.6 1.9.7 2.7.7 1.5-.1 2.6-1 2.6-3zm10.5-5.6c.9 0 2.2.3 3 .8l.3-.7h2v10.8h-2l-.3-.8c-.8.6-2.1.8-3 .8-3.3 0-5.8-2-5.7-5.4 0-3.4 2.4-5.5 5.7-5.5m2.5 3c-.6-.5-1.4-.7-2.2-.7-1.6 0-3.2 1-3.2 3.2s1.5 3.2 3 3.2c.9 0 1.9-.3 2.4-.8zm10.8 7.9c-3.1 0-5.7-2.3-5.7-5.4s2.6-5.3 5.7-5.4V8h2.8v3.5c3.1 0 5.7 2.3 5.7 5.4s-2.6 5.3-5.7 5.4v3.5h-2.8zm0-8.5c-1.9.2-2.8 1.5-2.8 3.1s.9 2.9 2.8 3zm5.6 3.1c0-1.6-.9-3-2.8-3v6c2-.1 2.8-1.4 2.8-3m7-3h-3.3v-2.4h9.6v2.3h-3.4v8.5H146v-8.5zm-50.6.3v.6h.2V16H97v2.4h2v3.8h-3.2v-2.5h-1.5v-1.3h-1V17h-2.8v5.3h-3.2V8h3.2v5.6h1.2v-1.1h2.6v-1.7h.6V9.3h.8V8H99v3.7h-.6v.8H97v1.7zm-41.2 0v.6h.3V16h1.4v2.4h2v3.8h-3.2v-2.5H53v-1.3h-1V17h-2.8v5.3H46V8h3.3v5.6h1.2v-1.1H53v-1.7h.6V9.3h.9V8h3.2v3.7h-.6v.8h-1.4v1.7z"/>
  <path d="M54.4 14h-.8v1.3l.8-.3zm41.1.8v-1l-1.3 1.3h1z"/>
</svg>
