<svg xmlns="http://www.w3.org/2000/svg" viewBox="0 0 32 28" fill="#ff4500">
  <path d="m8.94 4.37-1.1.35v2.25l-.8.2v2.55l-2.2.4v1.38l-.87.05V4.26L0 5.82v16.36l3.97 1.55V16.7l2.1.2v2.15l1.05.2v1.96l1.96.5v4l5.75 2.26v-8.05l-3.2-.58v-4.07l-2.1-.1v-2.34l1.87-.1V9.76l2.3-.34V8.1l.66-.13v-.05l.47-.09V.06l-5.89 2.3zm21.64 8.88v-2.02l1 .15v-.8l.25.04v-.03l.17.04V5.86l-3.08-1.2v1.6l-.7-.23v1.92l-.58-.14v2.3l-2.56-.38v1.55l-.66-.06V2.85L17.16 0v28l7.26-2.85v-8.1l2.4-.24v2.08l.87-.16v1.77l1.31-.34v3.17l3-1.17v-4.93l-1.3.24v-2.73l-1.14.06v-1.61l1.03.05zM27.14 16l-3.12.3-.39.05v8.27l-5.68 2.23V1.15l5.68 2.23v8.55l2.24.2v-1.5l2.56.37V8.8l.04.01.53.13V7.1l.15.05.56.18V5.81l1.5.58v3.3l-.17-.04v.03l-.25-.05v.84l-1-.14v2.1l-.37-.02-.65-.04v3.26l1.14-.06v2.84l1.3-.24v3.46l-1.42.55v-3.02l-1.3.33v-1.7l-.87.16v-2z"/>
</svg>
