<svg xmlns="http://www.w3.org/2000/svg" viewBox="0 0 16 16" fill="currentColor">
  <path d="M7 2h1v1H7zm1 0h1v1H8zM7 3h1v1H7zm1 0h1v1H8zM6 4h1v1H6zm3 0h1v1H9zM6 5h1v1H6zm3 0h1v1H9zM2 6h1v1H2zm1 0h1v1H3zm1 0h1v1H4zm1 0h1v1H5zm5 0h1v1h-1zm1 0h1v1h-1zm1 0h1v1h-1zm1 0h1v1h-1zM3 7h1v1H3zm9 0h1v1h-1zM4 8h1v1H4zm7 0h1v1h-1zM5 9h1v1H5zm5 0h1v1h-1zm-6 1h1v1H4zm7 0h1v1h-1zm-7 1h1v1H4zm3 0h1v1H7zm1 0h1v1H8zm3 0h1v1h-1zm-8 1h1v1H3zm3 0h1v1H6zm3 0h1v1H9zm3 0h1v1h-1zm-9 1h1v1H3zm1 0h1v1H4zm1 0h1v1H5zm5 0h1v1h-1zm1 0h1v1h-1zm1 0h1v1h-1z"/>
</svg>
