<svg xmlns="http://www.w3.org/2000/svg" viewBox="0 0 16 16" fill="currentColor">
  <path d="M5 1h1v1H5zm5 0h1v1h-1zM3 2h1v1H3zm1 0h1v1H4zm1 0h1v1H5zm1 0h1v1H6zm1 0h1v1H7zm1 0h1v1H8zm1 0h1v1H9zm1 0h1v1h-1zm1 0h1v1h-1zm1 0h1v1h-1zM2 3h1v1H2zm3 0h1v1H5zm5 0h1v1h-1zm3 0h1v1h-1zM2 4h1v1H2zm11 0h1v1h-1zM2 5h1v1H2zm1 0h1v1H3zm1 0h1v1H4zm1 0h1v1H5zm1 0h1v1H6zm1 0h1v1H7zm1 0h1v1H8zm1 0h1v1H9zm1 0h1v1h-1zm1 0h1v1h-1zm1 0h1v1h-1zm1 0h1v1h-1zM2 6h1v1H2zm11 0h1v1h-1zM2 7h1v1H2zm2 0h1v1H4zm1 0h1v1H5zm2 0h1v1H7zm1 0h1v1H8zm2 0h1v1h-1zm1 0h1v1h-1zm2 0h1v1h-1zM2 8h1v1H2zm11 0h1v1h-1zM2 9h1v1H2zm2 0h1v1H4zm1 0h1v1H5zm2 0h1v1H7zm1 0h1v1H8zm2 0h1v1h-1zm1 0h1v1h-1zm2 0h1v1h-1zM2 10h1v1H2zm11 0h1v1h-1zM2 11h1v1H2zm2 0h1v1H4zm1 0h1v1H5zm2 0h1v1H7zm1 0h1v1H8zm2 0h1v1h-1zm1 0h1v1h-1zm2 0h1v1h-1zM2 12h1v1H2zm11 0h1v1h-1zM3 13h1v1H3zm1 0h1v1H4zm1 0h1v1H5zm1 0h1v1H6zm1 0h1v1H7zm1 0h1v1H8zm1 0h1v1H9zm1 0h1v1h-1zm1 0h1v1h-1zm1 0h1v1h-1z"/>
</svg>
