<svg xmlns="http://www.w3.org/2000/svg" viewBox="0 0 32 32" fill="currentColor">
  <path d="M16 2C8.268 2 2 8.268 2 16s6.268 14 14 14 14-6.268 14-14S23.732 2 16 2m6.489 9.521c-.211 2.214-1.122 7.586-1.586 10.065-.196 1.049-.583 1.401-.957 1.435-.813.075-1.43-.537-2.218-1.053-1.232-.808-1.928-1.311-3.124-2.099-1.382-.911-.486-1.412.302-2.23.206-.214 3.788-3.472 3.858-3.768.009-.037.017-.175-.065-.248s-.203-.048-.29-.028q-.186.042-5.905 3.903-.838.576-1.518.561c-.5-.011-1.461-.283-2.176-.515-.877-.285-1.574-.436-1.513-.92q.048-.378 1.042-.773 6.122-2.667 8.164-3.517c3.888-1.617 4.696-1.898 5.222-1.907.116-.002.375.027.543.163.142.115.181.27.199.379s.042.357.023.551Z"/>
</svg>
