<svg xmlns="http://www.w3.org/2000/svg" viewBox="0 0 32 32" fill="currentColor">
  <path d="M28.04 3.96C26.061 2 22.897 2 16.56 2h-1.12C9.112 2 5.948 2 3.96 3.96 2 5.939 2 9.103 2 15.44v1.12c0 6.328 0 9.492 1.96 11.48C5.939 30 9.103 30 15.44 30h1.12c6.328 0 9.492 0 11.48-1.96C30 26.061 30 22.897 30 16.56v-1.12c0-6.328 0-9.492-1.96-11.48m-5.945 18.209c-.709-2.212-2.483-3.929-4.825-4.163v4.163h-.373c-6.384 0-10.024-4.368-10.173-11.648h3.211c.103 5.339 2.455 7.597 4.321 8.064v-8.064h3.015v4.601c1.839-.196 3.78-2.296 4.433-4.611h3.005a8.9 8.9 0 0 1-4.088 5.815 9.2 9.2 0 0 1 4.788 5.843z"/>
</svg>
